<svg width="28" height="28" viewBox="0 0 28 28" fill="none" xmlns="http://www.w3.org/2000/svg">
<path d="M4.10073 4.09531C1.47555 6.72108 0 10.2827 0 13.9968C0 17.7109 1.47569 21.2724 4.10073 23.8983C6.72577 26.5243 10.2867 28 14 28C17.7133 28 21.2739 26.524 23.8993 23.8983C26.5246 21.2727 28 17.7109 28 13.9968C28 10.2827 26.5243 6.72128 23.8993 4.09531C21.2715 1.47345 17.7123 0 14 0C10.2877 0 6.72844 1.47342 4.10073 4.09531ZM18.8379 17.7864C19.1289 18.0762 19.1289 18.546 18.8379 18.8357C18.5482 19.1267 18.0786 19.1267 17.7889 18.8357L13.9998 15.0471L10.2107 18.8357C9.92105 19.1267 9.45135 19.1267 9.16169 18.8357C8.87073 18.546 8.87073 18.0762 9.16169 17.7864L12.9494 13.9965L9.16169 10.2065C8.87073 9.91682 8.87073 9.44701 9.16169 9.15729C9.45135 8.86626 9.92105 8.86626 10.2107 9.15729L13.9998 12.9459L17.7889 9.15595V9.15726C18.0785 8.86623 18.5482 8.86623 18.8379 9.15726C19.1289 9.44698 19.1289 9.91678 18.8379 10.2065L15.0501 13.9965L18.8379 17.7864Z" fill="#7F84C4"/>
</svg>
